{"asset":{"version":"2.0","generator":"glacier animation demo"},"scene":0,"scenes":[{"name":"DemoScene","nodes":[0]}],"nodes":[{"name":"Root","children":[1,5]},{"name":"Link0","translation":[0,0.5,0],"children":[2],"mesh":0},{"name":"Link1","translation":[0,0.5,0],"children":[3],"mesh":0},{"name":"Link2","translation":[0,0.5,0],"children":[4],"mesh":0},{"name":"Link3","translation":[0,0.5,0],"mesh":0},{"name":"Marker","translation":[1,2,3]}],"meshes":[{"name":"Cube","primitives":[{"attributes":{"POSITION":0,"NORMAL":1},"indices":2,"material":0}]}],"materials":[{"name":"DemoMat","pbrMetallicRoughness":{"baseColorFactor":[0.85,0.5,0.2,1],"metallicFactor":0,"roughnessFactor":0.55}}],"animations":[{"name":"DemoSpin","channels":[{"sampler":0,"target":{"node":1,"path":"rotation"}},{"sampler":1,"target":{"node":2,"path":"rotation"}},{"sampler":2,"target":{"node":3,"path":"rotation"}},{"sampler":3,"target":{"node":4,"path":"rotation"}},{"sampler":4,"target":{"node":1,"path":"translation"}},{"sampler":5,"target":{"node":1,"path":"scale"}}],"samplers":[{"input":3,"output":4,"interpolation":"LINEAR"},{"input":3,"output":5,"interpolation":"LINEAR"},{"input":3,"output":6,"interpolation":"LINEAR"},{"input":3,"output":7,"interpolation":"LINEAR"},{"input":3,"output":8,"interpolation":"LINEAR"},{"input":3,"output":9,"interpolation":"LINEAR"}]}],"accessors":[{"bufferView":0,"componentType":5126,"count":24,"type":"VEC3","min":[-0.5,-0.5,-0.5],"max":[0.5,0.5,0.5]},{"bufferView":1,"componentType":5126,"count":24,"type":"VEC3"},{"bufferView":2,"componentType":5123,"count":36,"type":"SCALAR"},{"bufferView":3,"componentType":5126,"count":5,"type":"SCALAR","min":[0],"max":[2]},{"bufferView":4,"componentType":5126,"count":5,"type":"VEC4"},{"bufferView":5,"componentType":5126,"count":5,"type":"VEC4"},{"bufferView":6,"componentType":5126,"count":5,"type":"VEC4"},{"bufferView":7,"componentType":5126,"count":5,"type":"VEC4"},{"bufferView":8,"componentType":5126,"count":5,"type":"VEC3"},{"bufferView":9,"componentType":5126,"count":5,"type":"VEC3"}],"bufferViews":[{"buffer":0,"byteOffset":0,"byteLength":288,"target":34962},{"buffer":0,"byteOffset":288,"byteLength":288,"target":34962},{"buffer":0,"byteOffset":576,"byteLength":72,"target":34963},{"buffer":0,"byteOffset":648,"byteLength":20},{"buffer":0,"byteOffset":668,"byteLength":80},{"buffer":0,"byteOffset":748,"byteLength":80},{"buffer":0,"byteOffset":828,"byteLength":80},{"buffer":0,"byteOffset":908,"byteLength":80},{"buffer":0,"byteOffset":988,"byteLength":60},{"buffer":0,"byteOffset":1048,"byteLength":60}],"buffers":[{"byteLength":1108,"uri":"data:application/octet-stream;base64,"}]}