{"asset":{"version":"2.0","generator":"glacier skinning demo"},"scene":0,"scenes":[{"name":"DemoScene","nodes":[0]}],"nodes":[{"name":"Root","children":[1,6]},{"name":"Joint0","children":[2]},{"name":"Joint1","translation":[0.0,0.0,0.5],"children":[3]},{"name":"Joint2","translation":[0.0,0.0,0.5],"children":[4]},{"name":"Joint3","translation":[0.0,0.0,0.5],"children":[5]},{"name":"Joint4","translation":[0.0,0.0,0.5]},{"name":"Body","mesh":0,"skin":0}],"skins":[{"name":"RibbonSkin","joints":[1,2,3,4,5],"inverseBindMatrices":6,"skeleton":1}],"meshes":[{"name":"Ribbon","primitives":[{"attributes":{"POSITION":0,"NORMAL":1,"TEXCOORD_0":2,"JOINTS_0":4,"WEIGHTS_0":5},"indices":3,"material":0}]}],"materials":[{"name":"SkinMat","pbrMetallicRoughness":{"baseColorFactor":[0.85,0.45,0.2,1.0],"metallicFactor":0.0,"roughnessFactor":0.5}}],"animations":[{"name":"SkinWave","channels":[{"sampler":0,"target":{"node":2,"path":"rotation"}},{"sampler":1,"target":{"node":3,"path":"rotation"}},{"sampler":2,"target":{"node":4,"path":"rotation"}},{"sampler":3,"target":{"node":5,"path":"rotation"}}],"samplers":[{"input":7,"output":8,"interpolation":"LINEAR"},{"input":7,"output":9,"interpolation":"LINEAR"},{"input":7,"output":10,"interpolation":"LINEAR"},{"input":7,"output":11,"interpolation":"LINEAR"}]},{"name":"SkinCoil","channels":[{"sampler":0,"target":{"node":2,"path":"rotation"}},{"sampler":1,"target":{"node":3,"path":"rotation"}},{"sampler":2,"target":{"node":4,"path":"rotation"}},{"sampler":3,"target":{"node":5,"path":"rotation"}}],"samplers":[{"input":7,"output":12,"interpolation":"LINEAR"},{"input":7,"output":13,"interpolation":"LINEAR"},{"input":7,"output":14,"interpolation":"LINEAR"},{"input":7,"output":15,"interpolation":"LINEAR"}]}],"accessors":[{"bufferView":0,"componentType":5126,"count":18,"type":"VEC3","min":[-0.25,0.0,0.0],"max":[0.25,0.0,2.0]},{"bufferView":1,"componentType":5126,"count":18,"type":"VEC3"},{"bufferView":2,"componentType":5126,"count":18,"type":"VEC2"},{"bufferView":3,"componentType":5123,"count":48,"type":"SCALAR"},{"bufferView":4,"componentType":5123,"count":18,"type":"VEC4"},{"bufferView":5,"componentType":5126,"count":18,"type":"VEC4"},{"bufferView":6,"componentType":5126,"count":5,"type":"MAT4"},{"bufferView":7,"componentType":5126,"count":5,"type":"SCALAR","min":[0.0],"max":[2.0]},{"bufferView":8,"componentType":5126,"count":5,"type":"VEC4"},{"bufferView":9,"componentType":5126,"count":5,"type":"VEC4"},{"bufferView":10,"componentType":5126,"count":5,"type":"VEC4"},{"bufferView":11,"componentType":5126,"count":5,"type":"VEC4"},{"bufferView":12,"componentType":5126,"count":5,"type":"VEC4"},{"bufferView":13,"componentType":5126,"count":5,"type":"VEC4"},{"bufferView":14,"componentType":5126,"count":5,"type":"VEC4"},{"bufferView":15,"componentType":5126,"count":5,"type":"VEC4"}],"bufferViews":[{"buffer":0,"byteOffset":0,"byteLength":216,"target":34962},{"buffer":0,"byteOffset":216,"byteLength":216,"target":34962},{"buffer":0,"byteOffset":432,"byteLength":144,"target":34962},{"buffer":0,"byteOffset":576,"byteLength":96,"target":34963},{"buffer":0,"byteOffset":672,"byteLength":144,"target":34962},{"buffer":0,"byteOffset":816,"byteLength":288,"target":34962},{"buffer":0,"byteOffset":1104,"byteLength":320},{"buffer":0,"byteOffset":1424,"byteLength":20},{"buffer":0,"byteOffset":1444,"byteLength":80},{"buffer":0,"byteOffset":1524,"byteLength":80},{"buffer":0,"byteOffset":1604,"byteLength":80},{"buffer":0,"byteOffset":1684,"byteLength":80},{"buffer":0,"byteOffset":1764,"byteLength":80},{"buffer":0,"byteOffset":1844,"byteLength":80},{"buffer":0,"byteOffset":1924,"byteLength":80},{"buffer":0,"byteOffset":2004,"byteLength":80}],"buffers":[{"byteLength":2084,"uri":"data:application/octet-stream;base64,"}]}